<svg xmlns="http://www.w3.org/2000/svg" xmlns:xlink="http://www.w3.org/1999/xlink" width="300" height="300" viewBox="0 0 300 300">
  <defs>
    <clipPath id="clip-path">
      <rect id="Rectangle_20440" data-name="Rectangle 20440" width="300" height="300" transform="translate(1512.846 173.041)" fill="#fff" stroke="#707070" stroke-width="1"/>
    </clipPath>
  </defs>
  <g id="Kartu_Tak_Dikenali" data-name="Kartu Tak Dikenali" transform="translate(-1512.846 -173.041)" clip-path="url(#clip-path)">
    <g id="Group_50249" data-name="Group 50249" transform="translate(1513.006 214.836)">
      <g id="Group_50236" data-name="Group 50236" transform="translate(0 25.507)">
        <g id="Group_50235" data-name="Group 50235" transform="translate(0 0)" opacity="0.6">
          <path id="Path_23579" data-name="Path 23579" d="M178.028,416.092c38.792-12.911,44.253-71.517,86.573-68.79,110.06,7.093,160.771-176.594,58.129-112.6C269.7,267.746,215.4,244.024,178.751,254.932-15.908,312.865,121.606,434.865,178.028,416.092Z" transform="translate(-78.045 -221.141)" fill="#c33" opacity="0.6"/>
        </g>
        <path id="Path_35156" data-name="Path 35156" d="M587.081,620.029c-10.338-4.27-22.377-27.272,18.06-22.941C630.057,599.757,631.3,583,642.255,586.1,657.655,590.466,644.8,643.868,587.081,620.029Z" transform="translate(-407.533 -461.889)" fill="#c33" opacity="0.4"/>
      </g>
      <g id="Group_50238" data-name="Group 50238" transform="translate(194.214 0)">
        <circle id="Ellipse_4702" data-name="Ellipse 4702" cx="37.63" cy="37.63" r="37.63" fill="#fff"/>
        <circle id="Ellipse_4703" data-name="Ellipse 4703" cx="32.23" cy="32.23" r="32.23" transform="translate(5.401 5.401)" fill="#c1162a"/>
        <g id="Group_50237" data-name="Group 50237" transform="translate(32.228 16.568)">
          <path id="Path_35157" data-name="Path 35157" d="M741.383,225.735l-2.816-22.265-.07-9.321,10.735-.081.071,9.321-2.335,22.3ZM739.2,236.193l-.044-5.88,9.964-.075.045,5.88Z" transform="translate(-738.496 -194.068)" fill="#fff"/>
        </g>
      </g>
      <g id="Group_50244" data-name="Group 50244" transform="translate(0.002 15.937)">
        <path id="Path_35158" data-name="Path 35158" d="M123.219,437.519s-12.669-12.026-16.291-27.114.9-32.376-12.658-42.192c-17.5-12.674-25.369,9.558-38.043,3.522-7.57-3.6-3.621-15.692,18.106-13.881S102.1,370.528,106.32,383.2s-2.556,20.874,8.449,38.022c7.149,11.14,13.881,10.26,13.881,13.881S124.425,439.329,123.219,437.519Z" transform="translate(-52.693 -324.205)"/>
        <g id="Kepala_Domar" data-name="Kepala Domar" transform="translate(43.958 27.473)">
          <g id="Group_50239" data-name="Group 50239" transform="translate(5.495 0)">
            <ellipse id="Ellipse_4704" data-name="Ellipse 4704" cx="45.754" cy="47.28" rx="45.754" ry="47.28" transform="translate(43.858 21.536)" fill="#ef0808"/>
            <path id="Path_35159" data-name="Path 35159" d="M454.364,445.844c0,26.111-20.483,47.28-45.755,47.28a44.723,44.723,0,0,1-6.1-.42c22.389-3.081,39.654-22.885,39.654-46.86s-17.265-43.779-39.654-46.86a44.792,44.792,0,0,1,6.1-.42C433.882,398.564,454.364,419.733,454.364,445.844Z" transform="translate(-318.997 -377.028)" fill="#c1162a"/>
            <ellipse id="Ellipse_4705" data-name="Ellipse 4705" cx="28.01" cy="43.085" rx="28.01" ry="43.085" transform="matrix(0.827, -0.562, 0.562, 0.827, 0, 31.505)" fill="#c1162a"/>
            <path id="Path_35160" data-name="Path 35160" d="M285.559,448.689c7.946-10.592,6.017-30.083-5.544-47.089-13.383-19.674-34.606-28.573-47.394-19.873-.229.153-.45.313-.663.473a18.824,18.824,0,0,1,4.476-4.286c12.788-8.7,34.01.2,47.394,19.873C296.967,417.11,297.661,439.652,285.559,448.689Z" transform="translate(-213.272 -362.158)" fill="#a3162a"/>
          </g>
          <g id="Group_50240" data-name="Group 50240" transform="translate(0 33.892)">
            <ellipse id="Ellipse_4706" data-name="Ellipse 4706" cx="76.666" cy="49.97" rx="76.666" ry="49.97" transform="translate(0 36.311) rotate(-13.698)" fill="#f3e527"/>
            <path id="Path_35161" data-name="Path 35161" d="M347.641,572.259c-17.928,4.37-35.391,4.247-49.918.5a109.82,109.82,0,0,0,36.878-2.791c41.133-10.028,69.189-39.89,62.653-66.7-3.691-15.137-17.615-26.065-36.443-30.907,25.271,2.539,44.984,14.741,49.484,33.2C416.829,532.369,388.782,562.231,347.641,572.259Z" transform="translate(-248.545 -456.662)" fill="#f4ca19"/>
          </g>
          <g id="Group_50243" data-name="Group 50243" transform="translate(28.182 27.609)">
            <ellipse id="Ellipse_4707" data-name="Ellipse 4707" cx="17.983" cy="31.759" rx="17.983" ry="31.759" transform="translate(26.492 2.328) rotate(-3.712)"/>
            <ellipse id="Ellipse_4708" data-name="Ellipse 4708" cx="15.596" cy="28.498" rx="15.596" ry="28.498" transform="translate(0 11.946)"/>
            <ellipse id="Ellipse_4709" data-name="Ellipse 4709" cx="13.726" cy="26.69" rx="13.726" ry="26.69" transform="translate(1.344 13.754)" fill="#fff"/>
            <ellipse id="Ellipse_4710" data-name="Ellipse 4710" cx="16.022" cy="29.74" rx="16.022" ry="29.74" transform="translate(26.904 4.152) rotate(-3.712)" fill="#fff"/>
            <g id="Group_50241" data-name="Group 50241" transform="translate(11.257 30.531)">
              <path id="Path_35162" data-name="Path 35162" d="M285.89,503.1l-5.4,7.016-.3-6.444c-1.807.6-3.439.419-3.919-.526-.595-1.159.755-3.035,3-4.179.229-.115.458-.221.686-.312l-.168-3.76a2.978,2.978,0,0,0-.45-.03c-4,0-7.244,6.489-7.244,14.488s3.241,14.489,7.244,14.489,7.245-6.49,7.245-14.489A27.291,27.291,0,0,0,285.89,503.1Z" transform="translate(-272.103 -494.865)"/>
              <path id="Path_35163" data-name="Path 35163" d="M294.244,508.47c2.25-1.144,3.6-3.012,3-4.179-.526-1.045-2.44-1.151-4.461-.335l.229,5.018A7.871,7.871,0,0,0,294.244,508.47Z" transform="translate(-284.925 -500.166)"/>
            </g>
            <g id="Group_50242" data-name="Group 50242" transform="translate(40.172 19.123)">
              <path id="Path_35164" data-name="Path 35164" d="M364.386,474.263l-5.935,8.923-.9-7.757c-2.132.879-4.118.794-4.778-.308-.815-1.35.659-3.728,3.28-5.3.267-.158.534-.305.8-.435l-.517-4.526a3.552,3.552,0,0,0-.546,0c-4.835.334-8.207,8.442-7.539,18.1s5.123,17.227,9.958,16.893,8.207-8.442,7.539-18.1A33.039,33.039,0,0,0,364.386,474.263Z" transform="translate(-348.174 -464.853)"/>
              <path id="Path_35165" data-name="Path 35165" d="M373.161,480.693c2.621-1.569,4.1-3.938,3.28-5.3-.722-1.218-3.043-1.187-5.415-.033l.7,6.041A9.518,9.518,0,0,0,373.161,480.693Z" transform="translate(-362.339 -470.827)"/>
            </g>
          </g>
        </g>
        <path id="Path_35166" data-name="Path 35166" d="M431.895,358.3s4.508-13.024,3.005-23.543c-1.142-8-7.514-27.05,1.5-42.578,9.006-15.51,16.029-22.04,29.053-22.541s-4.007,16.03-16.03,16.531-19.4,19.536-12.022,46.586C443.416,354.794,431.394,363.31,431.895,358.3Z" transform="translate(-287.609 -269.627)"/>
        <path id="Path_35167" data-name="Path 35167" d="M371.413,666.982S381.955,653.1,404,657.456C404,657.456,374.157,648.4,371.413,666.982Z" transform="translate(-250.268 -508.675)"/>
      </g>
      <g id="Group_50248" data-name="Group 50248" transform="translate(47.397 34.46)">
        <g id="Group_50245" data-name="Group 50245" transform="translate(27.615 0)">
          <path id="Path_35168" data-name="Path 35168" d="M279.895,255.849a7.839,7.839,0,0,1,1.888-3.953,10.185,10.185,0,0,1,4.309-2.936,12.147,12.147,0,0,1,6.057-.556,12.643,12.643,0,0,1,5.34,1.917,9.005,9.005,0,0,1,3.249,3.641,7.742,7.742,0,0,1,.7,4.479,6.708,6.708,0,0,1-1.188,3.1,9.9,9.9,0,0,1-2.093,2.128q-1.16.856-4.133,2.851a15.081,15.081,0,0,0-1.334,1.008,4.786,4.786,0,0,0-.784.832,4.582,4.582,0,0,0-.45.791q-.177.4-.56,1.422a2.415,2.415,0,0,1-2.869,1.878,2.64,2.64,0,0,1-1.778-.993,2.9,2.9,0,0,1-.46-2.277,7.695,7.695,0,0,1,2.8-5.162,34.35,34.35,0,0,1,2.824-2.026q1.543-1.011,2.241-1.538a6.222,6.222,0,0,0,1.222-1.221,3.331,3.331,0,0,0,.647-1.574,3.834,3.834,0,0,0-.874-3.079,4.712,4.712,0,0,0-3.133-1.642,4.607,4.607,0,0,0-3.647.707,9.6,9.6,0,0,0-2.381,3.249q-1.069,2.326-3.11,2.041a2.751,2.751,0,0,1-1.912-1.132A2.622,2.622,0,0,1,279.895,255.849Zm7.2,25.012a3.415,3.415,0,0,1-2.17-1.168,3.006,3.006,0,0,1-.647-2.511,3.09,3.09,0,0,1,1.263-2.146,3.224,3.224,0,0,1,2.45-.6,3.186,3.186,0,0,1,2.755,3.648,3.028,3.028,0,0,1-1.3,2.228A3.294,3.294,0,0,1,287.093,280.861Z" transform="translate(-279.872 -248.257)" fill="#4978bc"/>
        </g>
        <g id="Group_50246" data-name="Group 50246" transform="translate(48.001 13.179)">
          <path id="Path_35169" data-name="Path 35169" d="M353.768,289.536a7.163,7.163,0,0,1,3.771-1.333,9.3,9.3,0,0,1,4.677.886,11.093,11.093,0,0,1,4.27,3.551,11.55,11.55,0,0,1,2.21,4.685,8.224,8.224,0,0,1-.253,4.447A7.071,7.071,0,0,1,366,305.116a6.127,6.127,0,0,1-2.767,1.233,9.034,9.034,0,0,1-2.725.023q-1.3-.2-4.509-.827a13.7,13.7,0,0,0-1.512-.211,4.391,4.391,0,0,0-1.044.031,4.189,4.189,0,0,0-.8.22q-.374.146-1.28.557a2.2,2.2,0,0,1-3.064-.64,2.41,2.41,0,0,1-.507-1.789,2.644,2.644,0,0,1,1.172-1.767,7.02,7.02,0,0,1,5.141-1.524,31.216,31.216,0,0,1,3.131.515q1.649.343,2.44.453a5.676,5.676,0,0,0,1.577,0,3.041,3.041,0,0,0,1.434-.6,3.5,3.5,0,0,0,1.424-2.552,4.3,4.3,0,0,0-.963-3.083,4.206,4.206,0,0,0-2.81-1.9,8.769,8.769,0,0,0-3.635.56q-2.192.811-3.326-.69a2.511,2.511,0,0,1-.5-1.965A2.393,2.393,0,0,1,353.768,289.536Zm-11.5,20.794a3.118,3.118,0,0,1-.646-2.155,2.744,2.744,0,0,1,1.2-2.038,2.821,2.821,0,0,1,2.2-.57,2.943,2.943,0,0,1,1.969,1.194,2.908,2.908,0,0,1-.577,4.133,2.765,2.765,0,0,1-2.276.6A3.007,3.007,0,0,1,342.268,310.33Z" transform="translate(-341.613 -288.172)" fill="#4978bc"/>
        </g>
        <g id="Group_50247" data-name="Group 50247" transform="translate(0 5.691)">
          <path id="Path_35170" data-name="Path 35170" d="M197.6,280.607a7.156,7.156,0,0,1-1.333-3.77,9.3,9.3,0,0,1,.886-4.676,11.089,11.089,0,0,1,3.55-4.269,11.544,11.544,0,0,1,4.684-2.209,8.221,8.221,0,0,1,4.447.253,7.066,7.066,0,0,1,3.342,2.439,6.125,6.125,0,0,1,1.233,2.766,9.028,9.028,0,0,1,.022,2.725q-.2,1.3-.827,4.508a13.768,13.768,0,0,0-.211,1.512,4.374,4.374,0,0,0,.031,1.043,4.2,4.2,0,0,0,.22.8q.146.373.557,1.279a2.2,2.2,0,0,1-.64,3.063,2.41,2.41,0,0,1-1.789.507,2.646,2.646,0,0,1-1.766-1.173,7.022,7.022,0,0,1-1.523-5.14,31.321,31.321,0,0,1,.515-3.13q.343-1.648.453-2.439a5.675,5.675,0,0,0,0-1.576,3.045,3.045,0,0,0-.6-1.434,3.5,3.5,0,0,0-2.551-1.423,4.3,4.3,0,0,0-3.082.963,4.2,4.2,0,0,0-1.9,2.81,8.762,8.762,0,0,0,.56,3.634q.811,2.192-.69,3.325a2.511,2.511,0,0,1-1.965.5A2.391,2.391,0,0,1,197.6,280.607Zm20.79,11.5a3.117,3.117,0,0,1-2.154.647,2.743,2.743,0,0,1-2.038-1.2,2.819,2.819,0,0,1-.57-2.2,2.943,2.943,0,0,1,1.194-1.968,2.908,2.908,0,0,1,4.133.576,2.765,2.765,0,0,1,.6,2.276A3.007,3.007,0,0,1,218.39,292.1Z" transform="translate(-196.236 -265.493)" fill="#4978bc"/>
        </g>
      </g>
    </g>
  </g>
</svg>
