<svg xmlns="http://www.w3.org/2000/svg" width="1366.001" height="647.001" viewBox="0 0 1366.001 647.001">
  <g id="BG" transform="translate(296.247 -273.009)" opacity="0.3">
    <g id="Group_31685" data-name="Group 31685" transform="translate(-296.247 273.009)">
      <g id="Group_21507" data-name="Group 21507" transform="translate(1019.407 579.011)">
        <g id="Group_21500" data-name="Group 21500">
          <g id="Group_21499" data-name="Group 21499">
            <path id="Path_11543" data-name="Path 11543" d="M55.137,36.641H2.883A2.9,2.9,0,0,1,0,33.757V2.883A2.943,2.943,0,0,1,2.883,0H55.067A2.9,2.9,0,0,1,57.95,2.883v30.8A2.854,2.854,0,0,1,55.137,36.641ZM2.883,2.461a.454.454,0,0,0-.422.422v30.8a.454.454,0,0,0,.422.422H55.067a.454.454,0,0,0,.422-.422V2.883a.454.454,0,0,0-.422-.422Z" fill="#d9d9d9"/>
          </g>
        </g>
        <g id="Group_21502" data-name="Group 21502" transform="translate(0.07 8.51)">
          <g id="Group_21501" data-name="Group 21501">
            <path id="Path_11544" data-name="Path 11544" d="M57.769,21.243H.1V12.1H57.7v9.143ZM2.632,18.781H55.237V14.632H2.632Z" transform="translate(-0.1 -12.1)" fill="#d9d9d9"/>
          </g>
        </g>
        <g id="Group_21504" data-name="Group 21504" transform="translate(38.891 19.621)">
          <g id="Group_21503" data-name="Group 21503">
            <path id="Path_11545" data-name="Path 11545" d="M61.559,40.418a6.259,6.259,0,1,1,6.259-6.259A6.273,6.273,0,0,1,61.559,40.418Zm0-9.987a3.727,3.727,0,1,0,3.727,3.727A3.752,3.752,0,0,0,61.559,30.432Z" transform="translate(-55.3 -27.9)" fill="#d9d9d9"/>
          </g>
        </g>
        <g id="Group_21506" data-name="Group 21506" transform="translate(6.892 23.278)">
          <g id="Group_21505" data-name="Group 21505">
            <rect id="Rectangle_9360" data-name="Rectangle 9360" width="18.074" height="6.681" fill="#d9d9d9"/>
          </g>
        </g>
      </g>
      <g id="Group_21535" data-name="Group 21535" transform="translate(504.642 465.041)">
        <g id="Group_21509" data-name="Group 21509">
          <g id="Group_21508" data-name="Group 21508">
            <path id="Path_11546" data-name="Path 11546" d="M66.676,40.863H0V0H66.676ZM2.885,37.978H63.712V2.885H2.885V37.978Z" fill="#d9d9d9"/>
          </g>
        </g>
        <g id="Group_21534" data-name="Group 21534" transform="translate(8.032 8.032)">
          <g id="Group_21511" data-name="Group 21511">
            <g id="Group_21510" data-name="Group 21510">
              <rect id="Rectangle_9361" data-name="Rectangle 9361" width="3.119" height="24.799" fill="#d9d9d9"/>
            </g>
          </g>
          <g id="Group_21513" data-name="Group 21513" transform="translate(5.693)">
            <g id="Group_21512" data-name="Group 21512">
              <rect id="Rectangle_9362" data-name="Rectangle 9362" width="3.119" height="21.913" fill="#d9d9d9"/>
            </g>
          </g>
          <g id="Group_21515" data-name="Group 21515" transform="translate(11.464)">
            <g id="Group_21514" data-name="Group 21514">
              <rect id="Rectangle_9363" data-name="Rectangle 9363" width="3.119" height="18.95" fill="#d9d9d9"/>
            </g>
          </g>
          <g id="Group_21517" data-name="Group 21517" transform="translate(17.234)">
            <g id="Group_21516" data-name="Group 21516">
              <rect id="Rectangle_9364" data-name="Rectangle 9364" width="1.638" height="16.065" fill="#d9d9d9"/>
            </g>
          </g>
          <g id="Group_21519" data-name="Group 21519" transform="translate(24.487)">
            <g id="Group_21518" data-name="Group 21518">
              <rect id="Rectangle_9365" data-name="Rectangle 9365" width="1.56" height="21.913" fill="#d9d9d9"/>
            </g>
          </g>
          <g id="Group_21521" data-name="Group 21521" transform="translate(20.977)">
            <g id="Group_21520" data-name="Group 21520">
              <rect id="Rectangle_9366" data-name="Rectangle 9366" width="1.014" height="21.913" fill="#d9d9d9"/>
            </g>
          </g>
          <g id="Group_21523" data-name="Group 21523" transform="translate(38.914)">
            <g id="Group_21522" data-name="Group 21522">
              <rect id="Rectangle_9367" data-name="Rectangle 9367" width="1.014" height="19.808" fill="#d9d9d9"/>
            </g>
          </g>
          <g id="Group_21525" data-name="Group 21525" transform="translate(29.01)">
            <g id="Group_21524" data-name="Group 21524">
              <rect id="Rectangle_9368" data-name="Rectangle 9368" width="3.119" height="21.913" fill="#d9d9d9"/>
            </g>
          </g>
          <g id="Group_21527" data-name="Group 21527" transform="translate(34.313)">
            <g id="Group_21526" data-name="Group 21526">
              <rect id="Rectangle_9369" data-name="Rectangle 9369" width="3.119" height="18.95" fill="#d9d9d9"/>
            </g>
          </g>
          <g id="Group_21529" data-name="Group 21529" transform="translate(41.721)">
            <g id="Group_21528" data-name="Group 21528">
              <rect id="Rectangle_9370" data-name="Rectangle 9370" width="2.262" height="16.065" fill="#d9d9d9"/>
            </g>
          </g>
          <g id="Group_21531" data-name="Group 21531" transform="translate(49.051)">
            <g id="Group_21530" data-name="Group 21530">
              <rect id="Rectangle_9371" data-name="Rectangle 9371" width="1.56" height="21.913" fill="#d9d9d9"/>
            </g>
          </g>
          <g id="Group_21533" data-name="Group 21533" transform="translate(45.464)">
            <g id="Group_21532" data-name="Group 21532">
              <rect id="Rectangle_9372" data-name="Rectangle 9372" width="1.014" height="21.913" fill="#d9d9d9"/>
            </g>
          </g>
        </g>
      </g>
      <g id="Group_21548" data-name="Group 21548" transform="translate(1024.932 145.706)">
        <g id="Group_21537" data-name="Group 21537" transform="translate(0 11.408)">
          <g id="Group_21536" data-name="Group 21536">
            <path id="Path_11547" data-name="Path 11547" d="M46.633,52.26,19.871,69.8,2.641,43.522A16,16,0,1,1,29.4,25.986ZM20.482,66.618,43.456,51.587,27.509,27.208A13.727,13.727,0,1,0,4.535,42.239Z" transform="translate(-0.035 -18.739)" fill="#d9d9d9"/>
          </g>
        </g>
        <g id="Group_21539" data-name="Group 21539" transform="translate(7.774 17.468)">
          <g id="Group_21538" data-name="Group 21538">
            <path id="Path_11548" data-name="Path 11548" d="M20.482,37.849a4.991,4.991,0,1,1,1.466-6.9A4.951,4.951,0,0,1,20.482,37.849Zm-4.216-6.416a2.737,2.737,0,1,0,3.788.794A2.7,2.7,0,0,0,16.266,31.433Z" transform="translate(-12.758 -28.658)" fill="#d9d9d9"/>
          </g>
        </g>
        <g id="Group_21541" data-name="Group 21541" transform="translate(12.494 29.521)">
          <g id="Group_21540" data-name="Group 21540">
            <path id="Path_11549" data-name="Path 11549" d="M37.724,50.41,22.265,60.553a1.144,1.144,0,0,1-1.283-1.894l15.4-10.082a1.161,1.161,0,0,1,1.589.306A1.029,1.029,0,0,1,37.724,50.41Z" transform="translate(-20.483 -48.383)" fill="#d9d9d9"/>
          </g>
        </g>
        <g id="Group_21543" data-name="Group 21543" transform="translate(15.488 33.981)">
          <g id="Group_21542" data-name="Group 21542">
            <path id="Path_11550" data-name="Path 11550" d="M42.624,57.832,27.165,67.914a1.144,1.144,0,1,1-1.283-1.894L41.341,55.877a1.161,1.161,0,0,1,1.589.306A1.237,1.237,0,0,1,42.624,57.832Z" transform="translate(-25.383 -55.683)" fill="#d9d9d9"/>
          </g>
        </g>
        <g id="Group_21545" data-name="Group 21545" transform="translate(18.482 38.564)">
          <g id="Group_21544" data-name="Group 21544">
            <path id="Path_11551" data-name="Path 11551" d="M47.463,65.271l-15.4,10.082a1.144,1.144,0,1,1-1.283-1.894l15.4-10.082a1.161,1.161,0,0,1,1.589.305A1.109,1.109,0,0,1,47.463,65.271Z" transform="translate(-30.283 -63.183)" fill="#d9d9d9"/>
          </g>
        </g>
        <g id="Group_21547" data-name="Group 21547" transform="translate(8.71 0)">
          <g id="Group_21546" data-name="Group 21546">
            <path id="Path_11552" data-name="Path 11552" d="M31.526,16.524a1.109,1.109,0,0,1-1.405-.122,1.144,1.144,0,0,1,0-1.589,20.587,20.587,0,0,0,4.766-7.271c.367-1.161.794-3.3-.428-4.521-.855-.855-2.627-.917-4.766-.183a20.14,20.14,0,0,0-7.576,5.071c-4.888,4.888-6.538,10.143-5.071,12.1.244,0,.672-.122,1.039-.855A1.134,1.134,0,1,1,20.1,20.19a3.309,3.309,0,0,1-4.033,1.894l-.428-.244C12.646,18.845,14.785,12,20.528,6.259A22.45,22.45,0,0,1,28.96.7c3.055-1.039,5.621-.794,7.149.733S38,5.4,37.087,8.275A21.576,21.576,0,0,1,31.71,16.4C31.649,16.4,31.588,16.462,31.526,16.524Z" transform="translate(-14.29 -0.068)" fill="#d9d9d9"/>
          </g>
        </g>
      </g>
      <g id="Group_21575" data-name="Group 21575" transform="translate(933.634 341.817)">
        <g id="Group_21563" data-name="Group 21563" transform="translate(0)">
          <g id="Group_21550" data-name="Group 21550">
            <g id="Group_21549" data-name="Group 21549">
              <path id="Path_11553" data-name="Path 11553" d="M3.493,24.065A3.226,3.226,0,0,1,.617,22.6a4.885,4.885,0,0,1-.05-4.591L8.437,0h7.416L10,18.616C9.093,21.643,6.116,24.065,3.493,24.065Zm6.1-22.3L2.232,18.717a3.06,3.06,0,0,0-.1,2.876,1.629,1.629,0,0,0,1.362.656c1.867,0,4.137-1.968,4.843-4.137l5.1-16.346Z" transform="translate(-0.024)" fill="#d9d9d9"/>
            </g>
          </g>
          <g id="Group_21552" data-name="Group 21552" transform="translate(8.103)">
            <g id="Group_21551" data-name="Group 21551">
              <path id="Path_11554" data-name="Path 11554" d="M19.927,24.065A3.617,3.617,0,0,1,16.9,22.6a4.9,4.9,0,0,1-.5-4.49L22.046,0h7.366L25.93,18.515C25.325,21.593,22.651,24.065,19.927,24.065Zm3.431-22.3L18.11,18.616a3.269,3.269,0,0,0,.252,2.876,1.826,1.826,0,0,0,1.564.757c1.816,0,3.784-1.917,4.187-4.036l3.078-16.4H23.357Z" transform="translate(-16.085)" fill="#d9d9d9"/>
            </g>
          </g>
          <g id="Group_21554" data-name="Group 21554" transform="translate(16.178)">
            <g id="Group_21553" data-name="Group 21553">
              <path id="Path_11555" data-name="Path 11555" d="M36.384,24.065A4.047,4.047,0,0,1,33.205,22.6,5.241,5.241,0,0,1,32.2,18.213L35.627,0h7.315l-1.16,18.415C41.53,21.543,39.159,24.065,36.384,24.065Zm.706-22.3-3.128,16.75a3.451,3.451,0,0,0,.605,2.876,2.222,2.222,0,0,0,1.766.858c1.816,0,3.431-1.816,3.582-3.935L40.975,1.766H37.09Z" transform="translate(-32.091)" fill="#d9d9d9"/>
            </g>
          </g>
          <g id="Group_21556" data-name="Group 21556" transform="translate(24.192)">
            <g id="Group_21555" data-name="Group 21555">
              <path id="Path_11556" data-name="Path 11556" d="M52.73,24.065A4.328,4.328,0,0,1,49.451,22.6a5.661,5.661,0,0,1-1.463-4.288L49.1,0h7.315l1.11,18.314A5.866,5.866,0,0,1,56.06,22.6,4.515,4.515,0,0,1,52.73,24.065Zm-1.968-22.3L49.753,18.415a4,4,0,0,0,1.009,2.926,2.7,2.7,0,0,0,4.036,0,4,4,0,0,0,1.009-2.926L54.8,1.766Z" transform="translate(-47.975)" fill="#d9d9d9"/>
            </g>
          </g>
          <g id="Group_21558" data-name="Group 21558" transform="translate(30.914)">
            <g id="Group_21557" data-name="Group 21557">
              <path id="Path_11557" data-name="Path 11557" d="M67.859,24.065c-2.775,0-5.2-2.523-5.4-5.651L61.3,0h7.315L72,18.213A5.283,5.283,0,0,1,70.987,22.6,4.029,4.029,0,0,1,67.859,24.065Zm-4.641-22.3,1.059,16.548c.151,2.119,1.766,3.935,3.582,3.935a2.222,2.222,0,0,0,1.766-.858,3.248,3.248,0,0,0,.605-2.876L67.152,1.766Z" transform="translate(-61.3)" fill="#d9d9d9"/>
            </g>
          </g>
          <g id="Group_21560" data-name="Group 21560" transform="translate(36.515)">
            <g id="Group_21559" data-name="Group 21559">
              <path id="Path_11558" data-name="Path 11558" d="M81.834,24.065c-2.724,0-5.4-2.472-5.953-5.5L72.4,0h7.366l5.65,18.112a5.076,5.076,0,0,1-.5,4.49A3.927,3.927,0,0,1,81.834,24.065Zm-7.265-22.3,3.078,16.4c.4,2.169,2.371,4.036,4.187,4.036a1.826,1.826,0,0,0,1.564-.757,3.269,3.269,0,0,0,.252-2.876l-5.2-16.8Z" transform="translate(-72.4)" fill="#d9d9d9"/>
            </g>
          </g>
          <g id="Group_21562" data-name="Group 21562" transform="translate(42.064)">
            <g id="Group_21561" data-name="Group 21561">
              <path id="Path_11559" data-name="Path 11559" d="M95.811,24.065c-2.674,0-5.6-2.422-6.508-5.4L83.4,0h7.416l7.87,18.011a4.747,4.747,0,0,1-.05,4.591A3.14,3.14,0,0,1,95.811,24.065Zm-9.939-22.3,5.1,16.3c.706,2.22,2.926,4.137,4.843,4.137a1.406,1.406,0,0,0,1.362-.656,3.065,3.065,0,0,0-.1-2.876l-7.416-16.9Z" transform="translate(-83.4)" fill="#d9d9d9"/>
            </g>
          </g>
        </g>
        <g id="Group_21565" data-name="Group 21565" transform="translate(5.235 21.492)">
          <g id="Group_21564" data-name="Group 21564">
            <path id="Path_11560" data-name="Path 11560" d="M57.824,74.838H10.4V43.508a.908.908,0,0,1,1.816,0V73.072H56.058V43.861a.908.908,0,1,1,1.816,0V74.838Z" transform="translate(-10.4 -42.6)" fill="#d9d9d9"/>
          </g>
        </g>
        <g id="Group_21567" data-name="Group 21567" transform="translate(36.666 22.955)">
          <g id="Group_21566" data-name="Group 21566">
            <path id="Path_11561" data-name="Path 11561" d="M73.608,75.972a.9.9,0,0,1-.908-.908V46.408a.908.908,0,1,1,1.816,0V75.064A.9.9,0,0,1,73.608,75.972Z" transform="translate(-72.7 -45.5)" fill="#d9d9d9"/>
          </g>
        </g>
        <g id="Group_21569" data-name="Group 21569" transform="translate(39.743 34.508)">
          <g id="Group_21568" data-name="Group 21568">
            <path id="Path_11562" data-name="Path 11562" d="M80.011,72.941c-1.211,0-1.211-1.715-1.211-2.27s0-2.27,1.211-2.27,1.211,1.715,1.211,2.27C81.171,71.225,81.171,72.941,80.011,72.941Z" transform="translate(-78.8 -68.4)" fill="#d9d9d9"/>
          </g>
        </g>
        <g id="Group_21574" data-name="Group 21574" transform="translate(9.359 35.404)">
          <g id="Group_21571" data-name="Group 21571" transform="translate(0 2.977)">
            <g id="Group_21570" data-name="Group 21570">
              <path id="Path_11563" data-name="Path 11563" d="M28.426,86.783a1.063,1.063,0,0,1-.656-.252L18.84,77.6A.892.892,0,1,1,20.1,76.34l8.93,8.93a.883.883,0,0,1,0,1.261A.931.931,0,0,1,28.426,86.783Z" transform="translate(-18.575 -76.075)" fill="#d9d9d9"/>
            </g>
          </g>
          <g id="Group_21573" data-name="Group 21573" transform="translate(2.926)">
            <g id="Group_21572" data-name="Group 21572">
              <path id="Path_11564" data-name="Path 11564" d="M31,77.7a1.063,1.063,0,0,1-.656-.252L24.64,71.7A.892.892,0,0,1,25.9,70.44l5.751,5.751a.883.883,0,0,1,0,1.261A.959.959,0,0,1,31,77.7Z" transform="translate(-24.375 -70.175)" fill="#d9d9d9"/>
            </g>
          </g>
        </g>
      </g>
      <g id="Group_21584" data-name="Group 21584" transform="translate(219.497 208.147)">
        <g id="Group_21577" data-name="Group 21577" transform="translate(0 13.569)">
          <g id="Group_21576" data-name="Group 21576">
            <path id="Path_11565" data-name="Path 11565" d="M47.967,67.231H6.168a6.308,6.308,0,0,1-4.6-2.028A6.04,6.04,0,0,1,.085,60.369L4.53,22.859A6.149,6.149,0,0,1,10.613,17.4H43.6a6.093,6.093,0,0,1,6.083,5.459l4.445,37.51A6.126,6.126,0,0,1,52.646,65.2,6.483,6.483,0,0,1,47.967,67.231ZM10.613,20.207a3.314,3.314,0,0,0-3.353,2.963L2.814,60.681a3.333,3.333,0,0,0,.858,2.651,3.441,3.441,0,0,0,2.5,1.17H48.045a3.45,3.45,0,0,0,2.573-1.17,3.531,3.531,0,0,0,.858-2.651l-4.445-37.51A3.448,3.448,0,0,0,43.6,20.207Z" transform="translate(-0.032 -17.4)" fill="#d9d9d9"/>
          </g>
        </g>
        <g id="Group_21579" data-name="Group 21579" transform="translate(15.962)">
          <g id="Group_21578" data-name="Group 21578">
            <path id="Path_11566" data-name="Path 11566" d="M41.243,22.615a1.4,1.4,0,0,1-1.4-1.4V11.074a8.266,8.266,0,0,0-16.532,0V21.211a1.4,1.4,0,0,1-2.807,0V11.074a11.074,11.074,0,0,1,22.147,0V21.211A1.4,1.4,0,0,1,41.243,22.615Z" transform="translate(-20.5)" fill="#d9d9d9"/>
          </g>
        </g>
        <g id="Group_21581" data-name="Group 21581" transform="translate(15.65 20.588)">
          <g id="Group_21580" data-name="Group 21580">
            <circle id="Ellipse_2433" data-name="Ellipse 2433" cx="1.716" cy="1.716" r="1.716" fill="#d9d9d9"/>
          </g>
        </g>
        <g id="Group_21583" data-name="Group 21583" transform="translate(34.912 20.588)">
          <g id="Group_21582" data-name="Group 21582">
            <circle id="Ellipse_2434" data-name="Ellipse 2434" cx="1.716" cy="1.716" r="1.716" fill="#d9d9d9"/>
          </g>
        </g>
      </g>
      <g id="Group_21600" data-name="Group 21600" transform="translate(1318.309 289.292)">
        <g id="Group_21599" data-name="Group 21599">
          <g id="Group_21586" data-name="Group 21586" transform="translate(0.117)">
            <g id="Group_21585" data-name="Group 21585">
              <path id="Path_11567" data-name="Path 11567" d="M23.988,47.576A23.788,23.788,0,1,1,47.776,23.788,23.813,23.813,0,0,1,23.988,47.576Zm0-46.176A22.389,22.389,0,1,0,46.376,23.788,22.432,22.432,0,0,0,23.988,1.4Z" transform="translate(-0.2)" fill="#d9d9d9"/>
            </g>
          </g>
          <g id="Group_21588" data-name="Group 21588" transform="translate(8.337)">
            <g id="Group_21587" data-name="Group 21587">
              <path id="Path_11568" data-name="Path 11568" d="M29.867,47.576C21.3,47.576,14.3,36.906,14.3,23.788S21.3,0,29.867,0a.674.674,0,0,1,.7.7.674.674,0,0,1-.7.7C22.054,1.4,15.7,11.427,15.7,23.788s6.355,22.389,14.168,22.389a.674.674,0,0,1,.7.7A.709.709,0,0,1,29.867,47.576Z" transform="translate(-14.3)" fill="#d9d9d9"/>
            </g>
          </g>
          <g id="Group_21590" data-name="Group 21590" transform="translate(22.272 0)">
            <g id="Group_21589" data-name="Group 21589">
              <path id="Path_11569" data-name="Path 11569" d="M38.9,47.576a.7.7,0,0,1,0-1.4c7.813,0,14.168-10.028,14.168-22.389S46.712,1.4,38.9,1.4a.674.674,0,0,1-.7-.7.674.674,0,0,1,.7-.7C47.47,0,54.408,10.67,54.408,23.788S47.47,47.576,38.9,47.576Z" transform="translate(-38.2 0)" fill="#d9d9d9"/>
            </g>
          </g>
          <g id="Group_21592" data-name="Group 21592" transform="translate(4.554 30.901)">
            <g id="Group_21591" data-name="Group 21591">
              <path id="Path_11570" data-name="Path 11570" d="M45.585,60.521a.662.662,0,0,1-.466-.175C40.921,56.615,34.1,54.4,26.928,54.4c-7.113,0-13.7,2.1-17.957,5.714a.7.7,0,1,1-.933-1.049C12.586,55.157,19.465,53,26.928,53c7.521,0,14.692,2.332,19.124,6.3a.671.671,0,0,1,.058.991A.868.868,0,0,1,45.585,60.521Z" transform="translate(-7.811 -53)" fill="#d9d9d9"/>
            </g>
          </g>
          <g id="Group_21594" data-name="Group 21594" transform="translate(4.754 8.758)">
            <g id="Group_21593" data-name="Group 21593">
              <path id="Path_11571" data-name="Path 11571" d="M27.071,22.3c-7.346,0-14.109-2.157-18.657-5.889A.706.706,0,1,1,9.288,15.3c4.314,3.557,10.786,5.539,17.783,5.539,7.055,0,13.585-2.041,17.841-5.655a.706.706,0,0,1,.875,1.108C41.3,20.14,34.417,22.3,27.071,22.3Z" transform="translate(-8.153 -15.021)" fill="#d9d9d9"/>
            </g>
          </g>
          <g id="Group_21596" data-name="Group 21596" transform="translate(23.205)">
            <g id="Group_21595" data-name="Group 21595">
              <path id="Path_11572" data-name="Path 11572" d="M40.5,47.576a.674.674,0,0,1-.7-.7V.7a.7.7,0,0,1,1.4,0V46.876A.709.709,0,0,1,40.5,47.576Z" transform="translate(-39.8)" fill="#d9d9d9"/>
            </g>
          </g>
          <g id="Group_21598" data-name="Group 21598" transform="translate(0 23.088)">
            <g id="Group_21597" data-name="Group 21597">
              <path id="Path_11573" data-name="Path 11573" d="M46.584,41H.7a.7.7,0,0,1,0-1.4H46.584a.7.7,0,0,1,0,1.4Z" transform="translate(0 -39.6)" fill="#d9d9d9"/>
            </g>
          </g>
        </g>
      </g>
      <g id="Group_21611" data-name="Group 21611" transform="translate(508.026 161.973)">
        <g id="Group_21602" data-name="Group 21602" transform="translate(32.609 18.538)">
          <g id="Group_21601" data-name="Group 21601">
            <path id="Path_11574" data-name="Path 11574" d="M65.856,68.527,50.3,53.36,74.347,28.6,89.9,43.767ZM53.541,53.3,65.856,65.222,86.662,43.767,74.347,31.841Z" transform="translate(-50.3 -28.6)" fill="#d9d9d9"/>
          </g>
        </g>
        <g id="Group_21604" data-name="Group 21604" transform="translate(13.488)">
          <g id="Group_21603" data-name="Group 21603">
            <path id="Path_11575" data-name="Path 11575" d="M38.5,42,20.8,24.76,44.782,0l17.76,17.241ZM24.041,24.7,38.5,38.7,59.3,17.241l-14.454-14Z" transform="translate(-20.8)" fill="#d9d9d9"/>
          </g>
        </g>
        <g id="Group_21606" data-name="Group 21606" transform="translate(50.288 35.244)">
          <g id="Group_21605" data-name="Group 21605">
            <path id="Path_11576" data-name="Path 11576" d="M78.693,82.716a1.2,1.2,0,0,1-.778-.324,1.135,1.135,0,0,1,0-1.62l25.214-26.056a1.146,1.146,0,0,1,1.62,1.62L79.536,82.327A1.045,1.045,0,0,1,78.693,82.716Z" transform="translate(-77.575 -54.375)" fill="#d9d9d9"/>
          </g>
        </g>
        <g id="Group_21608" data-name="Group 21608" transform="translate(0 26.634)">
          <g id="Group_21607" data-name="Group 21607">
            <path id="Path_11577" data-name="Path 11577" d="M44.4,77.654a1.2,1.2,0,0,1-.778-.324L9.719,44.4,1.034,43.43A1.174,1.174,0,1,1,1.293,41.1l9.528,1.1L45.3,75.644a1.135,1.135,0,0,1,0,1.62A1.28,1.28,0,0,1,44.4,77.654Z" transform="translate(0.01 -41.091)" fill="#d9d9d9"/>
          </g>
        </g>
        <g id="Group_21610" data-name="Group 21610" transform="translate(42.656 59.486)">
          <g id="Group_21609" data-name="Group 21609">
            <path id="Path_11578" data-name="Path 11578" d="M70.791,102.162a4.92,4.92,0,0,1-3.435-1.491,5.162,5.162,0,0,1-1.556-3.63,5.219,5.219,0,0,1,8.815-3.824h0a5.154,5.154,0,0,1-3.5,8.88A.585.585,0,0,1,70.791,102.162Zm.259-8.037h-.13a2.844,2.844,0,0,0-2.009.843,3.122,3.122,0,0,0-.843,2.074,2.844,2.844,0,0,0,.843,2.009,3,3,0,0,0,2.074.843,2.844,2.844,0,0,0,2.009-.843,2.875,2.875,0,0,0-.065-4.083A2.663,2.663,0,0,0,71.05,94.124Z" transform="translate(-65.8 -91.774)" fill="#d9d9d9"/>
          </g>
        </g>
      </g>
      <g id="Group_21613" data-name="Group 21613" transform="translate(737.045 463.587)">
        <g id="Group_21612" data-name="Group 21612">
          <path id="Path_11579" data-name="Path 11579" d="M3.9,7.8A3.861,3.861,0,0,1,0,3.9,3.861,3.861,0,0,1,3.9,0,3.861,3.861,0,0,1,7.8,3.9,3.861,3.861,0,0,1,3.9,7.8Zm0-5.225A1.367,1.367,0,0,0,2.573,3.9a1.326,1.326,0,0,0,2.651,0A1.367,1.367,0,0,0,3.9,2.573Z" fill="#d9d9d9"/>
        </g>
      </g>
      <g id="Group_21615" data-name="Group 21615" transform="translate(1272.135 159.086)">
        <g id="Group_21614" data-name="Group 21614">
          <path id="Path_11580" data-name="Path 11580" d="M3.9,7.8A3.861,3.861,0,0,1,0,3.9,3.861,3.861,0,0,1,3.9,0,3.861,3.861,0,0,1,7.8,3.9,3.861,3.861,0,0,1,3.9,7.8Zm0-5.225A1.367,1.367,0,0,0,2.573,3.9a1.326,1.326,0,0,0,2.651,0A1.367,1.367,0,0,0,3.9,2.573Z" fill="#d9d9d9"/>
        </g>
      </g>
      <g id="Group_21617" data-name="Group 21617" transform="translate(0 420.087)">
        <g id="Group_21616" data-name="Group 21616">
          <path id="Path_11581" data-name="Path 11581" d="M3.9,7.8A3.861,3.861,0,0,1,0,3.9,3.861,3.861,0,0,1,3.9,0,3.861,3.861,0,0,1,7.8,3.9,3.861,3.861,0,0,1,3.9,7.8Zm0-5.225A1.367,1.367,0,0,0,2.573,3.9a1.326,1.326,0,0,0,2.651,0A1.367,1.367,0,0,0,3.9,2.573Z" fill="#d9d9d9"/>
        </g>
      </g>
      <g id="Group_21619" data-name="Group 21619" transform="translate(22.615 0)">
        <g id="Group_21618" data-name="Group 21618">
          <path id="Path_11582" data-name="Path 11582" d="M3.9,7.8A3.861,3.861,0,0,1,0,3.9,3.861,3.861,0,0,1,3.9,0,3.861,3.861,0,0,1,7.8,3.9,3.861,3.861,0,0,1,3.9,7.8Zm0-5.225A1.367,1.367,0,0,0,2.573,3.9a1.326,1.326,0,0,0,2.651,0A1.367,1.367,0,0,0,3.9,2.573Z" fill="#d9d9d9"/>
        </g>
      </g>
      <g id="Group_21621" data-name="Group 21621" transform="translate(1214.458 458.205)">
        <g id="Group_21620" data-name="Group 21620" transform="translate(0 0)">
          <path id="Path_11583" data-name="Path 11583" d="M3.9,7.8A3.861,3.861,0,0,1,0,3.9,3.861,3.861,0,0,1,3.9,0,3.861,3.861,0,0,1,7.8,3.9,3.861,3.861,0,0,1,3.9,7.8Zm0-5.225A1.367,1.367,0,0,0,2.573,3.9a1.326,1.326,0,0,0,2.651,0A1.367,1.367,0,0,0,3.9,2.573Z" fill="#d9d9d9"/>
        </g>
      </g>
      <g id="Group_21623" data-name="Group 21623" transform="translate(404.603 130.5)">
        <g id="Group_21622" data-name="Group 21622">
          <path id="Path_11584" data-name="Path 11584" d="M3.9,7.8A3.861,3.861,0,0,1,0,3.9,3.861,3.861,0,0,1,3.9,0,3.861,3.861,0,0,1,7.8,3.9,3.861,3.861,0,0,1,3.9,7.8Zm0-5.225A1.367,1.367,0,0,0,2.573,3.9a1.326,1.326,0,0,0,2.651,0A1.367,1.367,0,0,0,3.9,2.573Z" fill="#d9d9d9"/>
        </g>
      </g>
      <g id="Group_21625" data-name="Group 21625" transform="translate(1259.389 174)">
        <g id="Group_21624" data-name="Group 21624">
          <path id="Path_11585" data-name="Path 11585" d="M3.9,7.8A3.861,3.861,0,0,1,0,3.9,3.861,3.861,0,0,1,3.9,0,3.861,3.861,0,0,1,7.8,3.9,3.861,3.861,0,0,1,3.9,7.8Zm0-5.225A1.367,1.367,0,0,0,2.573,3.9a1.326,1.326,0,0,0,2.651,0A1.367,1.367,0,0,0,3.9,2.573Z" fill="#d9d9d9"/>
        </g>
      </g>
      <g id="Group_21627" data-name="Group 21627" transform="translate(946.974 607.776)">
        <g id="Group_21626" data-name="Group 21626">
          <path id="Path_11586" data-name="Path 11586" d="M3.9,7.8A3.861,3.861,0,0,1,0,3.9,3.861,3.861,0,0,1,3.9,0,3.861,3.861,0,0,1,7.8,3.9,3.861,3.861,0,0,1,3.9,7.8Zm0-5.225A1.367,1.367,0,0,0,2.573,3.9a1.326,1.326,0,0,0,2.651,0A1.367,1.367,0,0,0,3.9,2.573Z" fill="#d9d9d9"/>
        </g>
      </g>
      <g id="Group_21629" data-name="Group 21629" transform="translate(831.489 368.019)">
        <g id="Group_21628" data-name="Group 21628">
          <path id="Path_11587" data-name="Path 11587" d="M3.9,7.8A3.861,3.861,0,0,1,0,3.9,3.861,3.861,0,0,1,3.9,0,3.861,3.861,0,0,1,7.8,3.9,3.861,3.861,0,0,1,3.9,7.8Zm0-5.225A1.367,1.367,0,0,0,2.573,3.9a1.326,1.326,0,0,0,2.651,0A1.367,1.367,0,0,0,3.9,2.573Z" fill="#d9d9d9"/>
        </g>
      </g>
      <g id="Group_21631" data-name="Group 21631" transform="translate(458.017 638.969)">
        <g id="Group_21630" data-name="Group 21630">
          <path id="Path_11588" data-name="Path 11588" d="M3.9,7.8A3.861,3.861,0,0,1,0,3.9,3.861,3.861,0,0,1,3.9,0,3.861,3.861,0,0,1,7.8,3.9,3.861,3.861,0,0,1,3.9,7.8Zm0-5.225A1.367,1.367,0,0,0,2.573,3.9a1.326,1.326,0,0,0,2.651,0A1.367,1.367,0,0,0,3.9,2.573Z" fill="#d9d9d9"/>
        </g>
      </g>
      <g id="Group_21633" data-name="Group 21633" transform="translate(892.311 495.322)">
        <g id="Group_21632" data-name="Group 21632" transform="translate(0 0)">
          <path id="Path_11589" data-name="Path 11589" d="M1.332,15.282a1.258,1.258,0,0,1-.7-.234,1.275,1.275,0,0,1-.39-1.794L7.648,1.245A2.458,2.458,0,0,1,9.754,0a2.6,2.6,0,0,1,2.262,1.014L20.2,11.617,26.91,1.245A2.853,2.853,0,0,1,29.016,0a2.665,2.665,0,0,1,2.262,1.092l9.2,12.087a1.256,1.256,0,0,1-.234,1.794,1.328,1.328,0,0,1-1.794-.234L29.25,2.649,22.543,13.02a2.853,2.853,0,0,1-2.106,1.248,2.6,2.6,0,0,1-2.262-1.014L9.988,2.649,2.424,14.658A1.344,1.344,0,0,1,1.332,15.282Z" transform="translate(-0.027 0.013)" fill="#d9d9d9"/>
        </g>
      </g>
      <g id="Group_21635" data-name="Group 21635" transform="translate(1097.296 317.927)">
        <g id="Group_21634" data-name="Group 21634" transform="translate(0 0)">
          <path id="Path_11590" data-name="Path 11590" d="M1.332,15.282a1.258,1.258,0,0,1-.7-.234,1.275,1.275,0,0,1-.39-1.794L7.648,1.245A2.458,2.458,0,0,1,9.754,0a2.6,2.6,0,0,1,2.262,1.014L20.2,11.617,26.91,1.245A2.853,2.853,0,0,1,29.016,0a2.665,2.665,0,0,1,2.262,1.092l9.2,12.087a1.256,1.256,0,0,1-.234,1.794,1.328,1.328,0,0,1-1.794-.234L29.25,2.649,22.543,13.02a2.853,2.853,0,0,1-2.106,1.248,2.6,2.6,0,0,1-2.262-1.014L9.988,2.649,2.424,14.658A1.344,1.344,0,0,1,1.332,15.282Z" transform="translate(-0.027 0.013)" fill="#d9d9d9"/>
        </g>
      </g>
      <g id="Group_21637" data-name="Group 21637" transform="translate(377.64 299.996)">
        <g id="Group_21636" data-name="Group 21636" transform="translate(0 0)">
          <path id="Path_11591" data-name="Path 11591" d="M1.332,15.282a1.258,1.258,0,0,1-.7-.234,1.275,1.275,0,0,1-.39-1.794L7.648,1.245A2.458,2.458,0,0,1,9.754,0a2.6,2.6,0,0,1,2.262,1.014L20.2,11.617,26.91,1.245A2.853,2.853,0,0,1,29.016,0a2.665,2.665,0,0,1,2.262,1.092l9.2,12.087a1.256,1.256,0,0,1-.234,1.794,1.328,1.328,0,0,1-1.794-.234L29.25,2.649,22.543,13.02a2.853,2.853,0,0,1-2.106,1.248,2.6,2.6,0,0,1-2.262-1.014L9.988,2.649,2.424,14.658A1.344,1.344,0,0,1,1.332,15.282Z" transform="translate(-0.027 0.013)" fill="#d9d9d9"/>
        </g>
      </g>
      <g id="Group_29628" data-name="Group 29628" transform="translate(680.703 289.292)">
        <g id="Group_21599-2" data-name="Group 21599">
          <g id="Group_21586-2" data-name="Group 21586" transform="translate(0.117)">
            <g id="Group_21585-2" data-name="Group 21585">
              <path id="Path_11567-2" data-name="Path 11567" d="M23.988,47.576A23.788,23.788,0,1,1,47.776,23.788,23.813,23.813,0,0,1,23.988,47.576Zm0-46.176A22.389,22.389,0,1,0,46.376,23.788,22.432,22.432,0,0,0,23.988,1.4Z" transform="translate(-0.2)" fill="#d9d9d9"/>
            </g>
          </g>
          <g id="Group_21588-2" data-name="Group 21588" transform="translate(8.337)">
            <g id="Group_21587-2" data-name="Group 21587">
              <path id="Path_11568-2" data-name="Path 11568" d="M29.867,47.576C21.3,47.576,14.3,36.906,14.3,23.788S21.3,0,29.867,0a.674.674,0,0,1,.7.7.674.674,0,0,1-.7.7C22.054,1.4,15.7,11.427,15.7,23.788s6.355,22.389,14.168,22.389a.674.674,0,0,1,.7.7A.709.709,0,0,1,29.867,47.576Z" transform="translate(-14.3)" fill="#d9d9d9"/>
            </g>
          </g>
          <g id="Group_21590-2" data-name="Group 21590" transform="translate(22.272 0)">
            <g id="Group_21589-2" data-name="Group 21589">
              <path id="Path_11569-2" data-name="Path 11569" d="M38.9,47.576a.7.7,0,0,1,0-1.4c7.813,0,14.168-10.028,14.168-22.389S46.712,1.4,38.9,1.4a.674.674,0,0,1-.7-.7.674.674,0,0,1,.7-.7C47.47,0,54.408,10.67,54.408,23.788S47.47,47.576,38.9,47.576Z" transform="translate(-38.2 0)" fill="#d9d9d9"/>
            </g>
          </g>
          <g id="Group_21592-2" data-name="Group 21592" transform="translate(4.554 30.901)">
            <g id="Group_21591-2" data-name="Group 21591">
              <path id="Path_11570-2" data-name="Path 11570" d="M45.585,60.521a.662.662,0,0,1-.466-.175C40.921,56.615,34.1,54.4,26.928,54.4c-7.113,0-13.7,2.1-17.957,5.714a.7.7,0,1,1-.933-1.049C12.586,55.157,19.465,53,26.928,53c7.521,0,14.692,2.332,19.124,6.3a.671.671,0,0,1,.058.991A.868.868,0,0,1,45.585,60.521Z" transform="translate(-7.811 -53)" fill="#d9d9d9"/>
            </g>
          </g>
          <g id="Group_21594-2" data-name="Group 21594" transform="translate(4.754 8.758)">
            <g id="Group_21593-2" data-name="Group 21593">
              <path id="Path_11571-2" data-name="Path 11571" d="M27.071,22.3c-7.346,0-14.109-2.157-18.657-5.889A.706.706,0,1,1,9.288,15.3c4.314,3.557,10.786,5.539,17.783,5.539,7.055,0,13.585-2.041,17.841-5.655a.706.706,0,0,1,.875,1.108C41.3,20.14,34.417,22.3,27.071,22.3Z" transform="translate(-8.153 -15.021)" fill="#d9d9d9"/>
            </g>
          </g>
          <g id="Group_21596-2" data-name="Group 21596" transform="translate(23.205)">
            <g id="Group_21595-2" data-name="Group 21595">
              <path id="Path_11572-2" data-name="Path 11572" d="M40.5,47.576a.674.674,0,0,1-.7-.7V.7a.7.7,0,0,1,1.4,0V46.876A.709.709,0,0,1,40.5,47.576Z" transform="translate(-39.8)" fill="#d9d9d9"/>
            </g>
          </g>
          <g id="Group_21598-2" data-name="Group 21598" transform="translate(0 23.088)">
            <g id="Group_21597-2" data-name="Group 21597">
              <path id="Path_11573-2" data-name="Path 11573" d="M46.584,41H.7a.7.7,0,0,1,0-1.4H46.584a.7.7,0,0,1,0,1.4Z" transform="translate(0 -39.6)" fill="#d9d9d9"/>
            </g>
          </g>
        </g>
      </g>
      <g id="Group_29629" data-name="Group 29629" transform="translate(838.475 223.715)">
        <g id="Group_21624-2" data-name="Group 21624">
          <path id="Path_11585-2" data-name="Path 11585" d="M3.9,7.8A3.861,3.861,0,0,1,0,3.9,3.861,3.861,0,0,1,3.9,0,3.861,3.861,0,0,1,7.8,3.9,3.861,3.861,0,0,1,3.9,7.8Zm0-5.225A1.367,1.367,0,0,0,2.573,3.9a1.326,1.326,0,0,0,2.651,0A1.367,1.367,0,0,0,3.9,2.573Z" fill="#d9d9d9"/>
        </g>
      </g>
      <g id="Group_29630" data-name="Group 29630" transform="translate(246.253 575.128)">
        <g id="Group_21500-2" data-name="Group 21500">
          <g id="Group_21499-2" data-name="Group 21499">
            <path id="Path_11543-2" data-name="Path 11543" d="M55.137,36.641H2.883A2.9,2.9,0,0,1,0,33.757V2.883A2.943,2.943,0,0,1,2.883,0H55.067A2.9,2.9,0,0,1,57.95,2.883v30.8A2.854,2.854,0,0,1,55.137,36.641ZM2.883,2.461a.454.454,0,0,0-.422.422v30.8a.454.454,0,0,0,.422.422H55.067a.454.454,0,0,0,.422-.422V2.883a.454.454,0,0,0-.422-.422Z" fill="#d9d9d9"/>
          </g>
        </g>
        <g id="Group_21502-2" data-name="Group 21502" transform="translate(0.07 8.51)">
          <g id="Group_21501-2" data-name="Group 21501">
            <path id="Path_11544-2" data-name="Path 11544" d="M57.769,21.243H.1V12.1H57.7v9.143ZM2.632,18.781H55.237V14.632H2.632Z" transform="translate(-0.1 -12.1)" fill="#d9d9d9"/>
          </g>
        </g>
        <g id="Group_21504-2" data-name="Group 21504" transform="translate(38.891 19.621)">
          <g id="Group_21503-2" data-name="Group 21503">
            <path id="Path_11545-2" data-name="Path 11545" d="M61.559,40.418a6.259,6.259,0,1,1,6.259-6.259A6.273,6.273,0,0,1,61.559,40.418Zm0-9.987a3.727,3.727,0,1,0,3.727,3.727A3.752,3.752,0,0,0,61.559,30.432Z" transform="translate(-55.3 -27.9)" fill="#d9d9d9"/>
          </g>
        </g>
        <g id="Group_21506-2" data-name="Group 21506" transform="translate(6.892 23.278)">
          <g id="Group_21505-2" data-name="Group 21505">
            <rect id="Rectangle_9360-2" data-name="Rectangle 9360" width="18.074" height="6.681" fill="#d9d9d9"/>
          </g>
        </g>
      </g>
      <g id="Group_29631" data-name="Group 29631" transform="translate(614.882 323.143)">
        <g id="Group_21624-3" data-name="Group 21624">
          <path id="Path_11585-3" data-name="Path 11585" d="M3.9,7.8A3.861,3.861,0,0,1,0,3.9,3.861,3.861,0,0,1,3.9,0,3.861,3.861,0,0,1,7.8,3.9,3.861,3.861,0,0,1,3.9,7.8Zm0-5.225A1.367,1.367,0,0,0,2.573,3.9a1.326,1.326,0,0,0,2.651,0A1.367,1.367,0,0,0,3.9,2.573Z" fill="#d9d9d9"/>
        </g>
      </g>
      <g id="Group_29632" data-name="Group 29632" transform="translate(748.571 583.601)">
        <g id="Group_21577-2" data-name="Group 21577" transform="translate(0 13.569)">
          <g id="Group_21576-2" data-name="Group 21576">
            <path id="Path_11565-2" data-name="Path 11565" d="M47.967,67.231H6.168a6.308,6.308,0,0,1-4.6-2.028A6.04,6.04,0,0,1,.085,60.369L4.53,22.859A6.149,6.149,0,0,1,10.613,17.4H43.6a6.093,6.093,0,0,1,6.083,5.459l4.445,37.51A6.126,6.126,0,0,1,52.646,65.2,6.483,6.483,0,0,1,47.967,67.231ZM10.613,20.207a3.314,3.314,0,0,0-3.353,2.963L2.814,60.681a3.333,3.333,0,0,0,.858,2.651,3.441,3.441,0,0,0,2.5,1.17H48.045a3.45,3.45,0,0,0,2.573-1.17,3.531,3.531,0,0,0,.858-2.651l-4.445-37.51A3.448,3.448,0,0,0,43.6,20.207Z" transform="translate(-0.032 -17.4)" fill="#d9d9d9"/>
          </g>
        </g>
        <g id="Group_21579-2" data-name="Group 21579" transform="translate(15.962)">
          <g id="Group_21578-2" data-name="Group 21578">
            <path id="Path_11566-2" data-name="Path 11566" d="M41.243,22.615a1.4,1.4,0,0,1-1.4-1.4V11.074a8.266,8.266,0,0,0-16.532,0V21.211a1.4,1.4,0,0,1-2.807,0V11.074a11.074,11.074,0,0,1,22.147,0V21.211A1.4,1.4,0,0,1,41.243,22.615Z" transform="translate(-20.5)" fill="#d9d9d9"/>
          </g>
        </g>
        <g id="Group_21581-2" data-name="Group 21581" transform="translate(15.65 20.588)">
          <g id="Group_21580-2" data-name="Group 21580">
            <circle id="Ellipse_2433-2" data-name="Ellipse 2433" cx="1.716" cy="1.716" r="1.716" fill="#d9d9d9"/>
          </g>
        </g>
        <g id="Group_21583-2" data-name="Group 21583" transform="translate(34.912 20.588)">
          <g id="Group_21582-2" data-name="Group 21582">
            <circle id="Ellipse_2434-2" data-name="Ellipse 2434" cx="1.716" cy="1.716" r="1.716" fill="#d9d9d9"/>
          </g>
        </g>
      </g>
      <g id="Group_29634" data-name="Group 29634" transform="translate(591.296 597.638)">
        <g id="Group_21636-2" data-name="Group 21636" transform="translate(0 0)">
          <path id="Path_11591-2" data-name="Path 11591" d="M1.332,15.282a1.258,1.258,0,0,1-.7-.234,1.275,1.275,0,0,1-.39-1.794L7.648,1.245A2.458,2.458,0,0,1,9.754,0a2.6,2.6,0,0,1,2.262,1.014L20.2,11.617,26.91,1.245A2.853,2.853,0,0,1,29.016,0a2.665,2.665,0,0,1,2.262,1.092l9.2,12.087a1.256,1.256,0,0,1-.234,1.794,1.328,1.328,0,0,1-1.794-.234L29.25,2.649,22.543,13.02a2.853,2.853,0,0,1-2.106,1.248,2.6,2.6,0,0,1-2.262-1.014L9.988,2.649,2.424,14.658A1.344,1.344,0,0,1,1.332,15.282Z" transform="translate(-0.027 0.013)" fill="#d9d9d9"/>
        </g>
      </g>
      <g id="Group_29635" data-name="Group 29635" transform="translate(7.018 223.715)">
        <g id="Group_21618-2" data-name="Group 21618">
          <path id="Path_11582-2" data-name="Path 11582" d="M3.9,7.8A3.861,3.861,0,0,1,0,3.9,3.861,3.861,0,0,1,3.9,0,3.861,3.861,0,0,1,7.8,3.9,3.861,3.861,0,0,1,3.9,7.8Zm0-5.225A1.367,1.367,0,0,0,2.573,3.9a1.326,1.326,0,0,0,2.651,0A1.367,1.367,0,0,0,3.9,2.573Z" fill="#d9d9d9"/>
        </g>
      </g>
    </g>
  </g>
</svg>
